<svg xmlns="http://www.w3.org/2000/svg" width="600" height="480" viewBox="0 0 600 480">
<g>
<path d="M 194.00 186.19 C194.00,186.63 179.15,187.00 161.00,187.00 C157.64,187.00 154.61,187.01 151.86,187.02 C135.26,187.07 129.44,187.09 128.34,184.82 C127.75,183.60 128.53,181.71 129.73,178.81 C130.10,177.92 130.51,176.94 130.93,175.85 C140.75,150.35 155.45,128.33 175.34,109.31 C212.84,73.45 263.33,55.55 314.82,59.84 C322.89,60.51 333.55,61.95 338.50,63.04 C392.67,74.94 439.47,111.85 463.00,161.24 C467.30,170.26 473.00,184.59 473.00,186.37 C473.00,186.72 458.16,187.00 440.03,187.00 L 407.05 187.00 L 405.39 183.75 C398.15,169.59 380.43,150.10 366.24,140.68 C351.58,130.95 333.73,124.24 316.28,121.91 C305.71,120.50 285.32,121.22 275.48,123.35 C249.82,128.92 225.37,143.71 208.77,163.71 C202.80,170.92 194.00,184.30 194.00,186.19 ZM 333.50 417.99 C321.05,420.43 290.30,421.55 279.00,419.97 C222.08,412.03 173.27,380.32 144.91,332.86 C140.22,325.03 131.00,306.21 131.00,304.50 C131.00,304.22 146.41,304.00 165.25,304.00 L 199.50 304.00 L 202.32 308.47 C206.53,315.12 222.45,330.93 231.00,336.92 C243.81,345.91 256.48,351.71 273.00,356.14 C283.96,359.08 308.42,359.81 320.50,357.55 C346.29,352.73 367.79,341.24 385.65,322.72 C390.55,317.65 395.89,311.38 397.53,308.79 L 400.50 304.07 L 434.75 304.04 C456.63,304.01 469.00,304.36 469.00,304.99 C469.00,305.53 466.56,311.14 463.59,317.45 C438.97,369.63 390.98,406.73 333.50,417.99 ZM 313.55 253.55 C310.82,256.27 308.64,256.56 305.21,254.66 C300.25,251.90 300.00,250.09 300.00,216.39 L 300.00 185.00 L 369.00 185.00 L 369.00 249.00 L 357.06 249.00 C350.49,249.00 344.89,248.63 344.61,248.18 C344.34,247.74 344.86,244.59 345.77,241.18 C346.89,236.98 347.92,235.00 348.97,235.00 C349.82,235.00 351.08,234.10 351.77,233.00 C353.00,231.03 352.77,231.00 336.50,231.00 C320.32,231.00 320.01,231.04 321.21,232.97 C321.89,234.05 323.09,235.06 323.88,235.22 C325.36,235.51 329.27,247.39 328.24,248.43 C327.92,248.74 325.04,249.00 321.83,249.00 C318.44,249.00 316.00,249.44 316.00,250.05 C316.00,250.62 314.90,252.20 313.55,253.55 ZM 315.04 315.00 L 300.08 315.00 L 299.79 324.09 L 299.50 333.18 L 287.46 327.15 C280.83,323.83 271.88,318.54 267.56,315.38 L 259.71 309.65 L 271.10 307.26 C283.32,304.70 290.73,304.78 296.04,307.52 C297.61,308.33 299.15,309.00 299.45,309.00 C299.75,309.00 300.00,299.33 300.00,287.51 L 300.00 266.03 L 303.75 264.37 C309.86,261.67 318.38,261.54 330.04,263.97 C336.83,265.38 341.99,265.92 344.75,265.51 L 349.00 264.88 L 349.00 286.33 C349.00,304.97 348.79,307.87 347.42,308.39 C344.47,309.53 336.53,308.96 328.00,307.00 C323.33,305.93 317.88,305.04 315.91,305.03 C312.16,305.00 301.27,308.33 299.58,310.02 C299.03,310.57 292.28,311.00 284.30,311.00 C270.67,311.00 270.00,311.09 270.00,313.00 C270.00,314.91 270.67,315.00 285.00,315.00 C299.33,315.00 300.00,314.91 300.00,313.00 C300.00,311.09 300.67,311.00 315.00,311.00 C329.33,311.00 330.00,311.09 330.00,313.00 C330.00,314.91 329.33,315.00 315.04,315.00 ZM 253.27 264.60 L 251.04 263.88 L 250.77 282.53 L 250.50 301.19 L 245.16 294.60 C242.22,290.98 237.83,284.54 235.41,280.28 L 231.00 272.55 L 231.00 249.00 L 284.42 249.00 L 288.71 244.79 C291.07,242.48 293.00,240.17 293.00,239.66 C293.00,239.15 291.20,238.98 289.00,239.27 C286.80,239.57 284.97,239.52 284.92,239.15 C284.88,238.79 284.70,237.71 284.51,236.75 C284.33,235.79 284.61,235.00 285.15,235.00 C285.68,235.00 285.33,233.67 284.37,232.05 C282.93,229.62 282.84,228.65 283.82,226.51 C285.11,223.66 285.46,213.00 284.25,213.01 C283.84,213.01 278.81,214.83 273.09,217.06 L 262.67 221.10 L 249.33 215.86 C241.99,212.98 236.32,210.28 236.74,209.88 C237.98,208.67 261.04,200.00 263.01,200.00 C264.55,200.00 286.83,208.23 289.32,209.72 C289.78,209.99 289.18,210.89 287.99,211.72 C286.04,213.09 285.89,213.84 286.44,219.86 C286.77,223.51 287.13,228.19 287.22,230.25 C287.39,233.75 287.61,234.00 290.55,234.00 C293.93,234.00 297.00,236.56 297.00,239.38 C297.00,241.69 294.19,247.00 292.97,247.00 C292.44,247.00 292.00,247.45 292.00,248.00 C292.00,248.55 293.80,249.00 296.00,249.00 L 300.00 249.00 L 300.00 257.00 C300.00,261.40 299.80,265.00 299.57,265.00 C299.33,265.00 297.86,264.52 296.32,263.93 C289.32,261.26 284.46,261.07 274.90,263.08 C264.83,265.20 256.87,265.76 253.27,264.60 ZM 340.00 228.08 C340.00,229.83 345.80,226.09 348.10,222.86 C351.40,218.22 351.88,210.16 349.12,205.69 C347.95,203.81 347.00,201.30 347.00,200.13 C347.00,197.74 345.99,197.41 344.20,199.20 C342.39,201.01 342.73,202.78 345.61,206.56 C348.03,209.72 348.30,213.00 346.15,213.00 C344.60,213.00 343.29,210.66 342.54,206.53 C342.15,204.35 341.15,201.25 340.31,199.63 C339.27,197.62 339.00,195.41 339.45,192.61 L 340.10 188.53 L 336.97 191.52 C334.03,194.32 333.88,194.81 334.48,199.63 C335.04,204.15 334.82,205.10 332.64,207.63 C329.53,211.24 328.33,210.17 329.84,205.14 C331.26,200.38 331.33,197.00 330.00,197.00 C329.45,197.00 329.00,197.41 329.00,197.91 C329.00,198.40 327.46,200.65 325.58,202.90 C321.31,208.02 320.25,212.21 322.41,215.51 C323.29,216.84 324.00,218.88 324.00,220.04 C324.00,222.48 329.11,228.00 331.37,228.00 C332.62,228.00 332.71,227.48 331.88,225.08 C331.12,222.90 331.20,221.55 332.20,219.83 C335.62,213.91 337.55,211.01 338.06,211.01 C338.38,211.00 339.39,212.59 340.31,214.53 C342.17,218.42 342.58,225.53 341.00,226.50 C340.45,226.84 340.00,227.55 340.00,228.08 ZM 196.30 298.50 L 197.97 302.00 L 130.32 302.00 L 129.16 299.45 C128.52,298.05 128.00,296.48 128.00,295.95 C128.00,295.37 140.87,295.00 161.31,295.00 L 194.63 295.00 ZM 471.02 299.43 L 470.05 302.00 L 436.52 302.00 C418.09,302.00 403.00,301.75 403.00,301.45 C403.00,301.15 403.69,299.57 404.53,297.95 L 406.05 295.00 L 439.03 295.00 C458.81,295.00 472.00,295.37 472.00,295.93 C472.00,296.45 471.56,298.02 471.02,299.43 ZM 190.27 194.25 C189.80,195.87 187.37,196.00 157.38,196.00 C156.08,196.00 154.83,196.00 153.62,196.00 C131.31,196.01 125.98,196.01 125.22,194.15 C124.99,193.56 125.20,192.80 125.48,191.79 C125.53,191.62 125.58,191.44 125.63,191.25 L 126.23 189.00 L 159.22 189.00 C190.25,189.00 192.17,189.10 191.49,190.75 C191.10,191.71 190.55,193.29 190.27,194.25 ZM 474.61 192.82 L 475.25 196.00 L 411.01 196.00 L 408.35 189.50 L 440.83 189.24 C458.69,189.09 473.46,189.12 473.64,189.31 C473.83,189.49 474.27,191.08 474.61,192.82 ZM 478.61 209.42 C479.15,210.84 476.02,211.00 447.67,211.00 C430.31,211.00 415.93,210.66 415.70,210.25 C415.47,209.84 414.98,208.26 414.62,206.75 L 413.96 204.00 L 445.98 204.00 C476.88,204.00 478.00,204.07 478.00,205.92 C478.00,206.97 478.27,208.55 478.61,209.42 ZM 185.02 208.43 L 184.05 211.00 L 153.02 211.00 C123.11,211.00 122.00,210.93 122.00,209.08 C122.00,208.90 122.00,208.73 122.00,208.56 C121.99,207.53 121.98,206.74 122.31,206.12 C123.45,203.99 128.56,204.00 151.28,204.00 C152.35,204.00 153.46,204.00 154.61,204.00 C173.41,204.00 186.00,204.37 186.00,204.93 C186.00,205.45 185.56,207.02 185.02,208.43 ZM 190.00 286.57 C190.00,286.80 175.43,287.00 157.62,287.00 L 125.23 287.00 L 124.63 284.75 C124.30,283.51 124.02,282.16 124.01,281.75 C124.01,281.34 138.41,281.00 156.02,281.00 L 188.05 281.00 L 189.02 283.57 C189.56,284.98 190.00,286.33 190.00,286.57 ZM 475.39 285.42 C474.86,286.82 471.01,287.00 442.39,287.00 C424.58,287.00 410.00,286.80 410.00,286.55 C410.00,286.30 410.52,284.95 411.16,283.55 L 412.32 281.00 L 444.16 281.00 L 446.31 281.00 C469.69,281.00 475.32,281.00 475.97,282.80 C476.18,283.38 475.89,284.13 475.50,285.13 C475.47,285.22 475.43,285.32 475.39,285.42 ZM 255.08 390.41 C261.32,395.67 269.00,393.09 271.43,384.94 C273.32,378.56 272.06,373.60 268.00,371.50 C259.66,367.19 252.00,372.87 252.00,383.36 C252.00,387.11 252.49,388.23 255.08,390.41 ZM 348.78 109.44 C352.75,111.60 355.46,111.33 358.89,108.44 C361.74,106.04 363.98,100.88 363.99,96.67 C364.00,95.67 362.68,93.53 361.08,91.92 C354.46,85.30 344.00,90.87 344.00,101.02 C344.00,105.10 345.43,107.63 348.78,109.44 ZM 391.36 134.01 C397.14,136.34 402.37,133.96 405.37,127.63 C407.70,122.72 407.40,120.25 404.08,116.92 C399.68,112.52 394.92,112.84 389.88,117.88 C386.90,120.87 386.00,122.55 386.00,125.16 C386.00,129.05 388.24,132.75 391.36,134.01 ZM 276.27 99.72 L 276.20 102.93 L 280.85 102.33 C287.56,101.45 290.66,99.57 291.97,95.58 C293.28,91.63 292.00,85.14 289.40,82.55 C287.62,80.77 274.54,80.32 273.50,82.00 C273.16,82.55 273.32,83.00 273.86,83.00 C274.85,83.00 276.39,93.74 276.27,99.72 ZM 308.28 388.98 C308.48,397.25 308.66,397.99 310.50,397.98 C314.11,397.96 315.19,396.63 314.04,393.60 C312.59,389.79 312.73,389.00 314.85,389.00 C317.03,389.00 319.64,391.69 320.18,394.50 C320.49,396.13 321.21,396.44 324.03,396.16 C328.29,395.74 328.94,395.19 327.00,393.64 C326.17,392.98 324.47,391.28 323.21,389.87 C320.98,387.35 320.97,387.22 322.68,384.23 C324.06,381.84 324.22,380.54 323.45,378.33 C322.51,375.64 322.12,375.49 315.58,375.20 C306.96,374.83 305.55,375.28 306.99,377.97 C307.58,379.08 308.16,384.03 308.28,388.98 ZM 203.00 136.90 C203.00,137.51 203.46,138.00 204.02,138.00 C205.64,138.00 213.73,130.15 214.28,128.04 C214.99,125.33 212.32,122.00 209.44,122.00 C207.56,122.00 207.00,121.47 207.00,119.70 C207.00,113.99 201.30,113.47 194.62,118.56 C190.30,121.86 189.43,123.92 192.31,124.06 C193.70,124.12 203.00,135.29 203.00,136.90 ZM 376.50 122.82 C379.25,124.36 380.00,124.27 380.00,122.41 C380.00,119.92 386.88,108.26 388.78,107.52 C390.31,106.92 390.24,106.64 388.14,104.93 C385.46,102.74 382.81,102.38 383.13,104.25 C383.25,104.94 382.77,106.68 382.07,108.11 L 380.80 110.73 L 377.02 108.65 C373.29,106.61 373.26,106.54 374.84,104.04 C375.73,102.64 376.91,101.15 377.48,100.73 C378.12,100.25 377.78,99.42 376.56,98.48 C374.17,96.66 372.33,96.57 372.33,98.29 C372.33,100.53 365.01,112.78 363.26,113.45 C361.87,113.99 362.09,114.42 364.55,116.04 C367.96,118.29 369.36,118.53 368.72,116.75 C368.06,114.93 371.17,110.00 372.97,110.02 C373.81,110.03 375.57,110.87 376.87,111.87 C379.23,113.68 379.23,113.72 377.40,116.60 C376.38,118.19 375.10,119.81 374.55,120.20 C373.44,120.97 373.63,121.22 376.50,122.82 ZM 332.00 103.98 C332.83,104.53 334.56,104.98 335.86,104.98 C337.63,105.00 338.06,104.60 337.58,103.36 C336.74,101.17 338.88,90.10 340.70,87.16 L 340.74 87.11 C341.51,85.87 341.92,85.21 341.75,84.79 C341.55,84.29 340.57,84.11 338.46,83.71 C335.50,83.15 335.42,83.24 335.26,87.19 C335.17,89.41 334.92,91.42 334.70,91.63 C334.48,91.85 332.55,91.66 330.40,91.22 C326.81,90.47 326.53,90.17 326.85,87.45 C327.05,85.83 327.72,84.16 328.35,83.75 C329.87,82.76 327.31,81.04 324.28,81.02 C322.76,81.00 322.24,81.45 322.62,82.44 C323.37,84.41 320.22,99.24 318.87,100.08 C317.59,100.87 318.49,101.48 322.32,102.40 C324.64,102.95 325.11,102.76 324.95,101.29 C324.35,95.45 324.94,94.00 327.92,94.00 C332.95,94.00 333.98,94.83 333.30,98.34 C332.96,100.08 332.19,101.84 331.59,102.25 C330.84,102.76 330.97,103.31 332.00,103.98 ZM 295.68 100.34 C296.66,101.33 300.80,101.13 301.46,100.07 C301.77,99.56 301.59,98.87 301.06,98.54 C298.80,97.14 301.33,95.00 305.23,95.00 C309.16,95.00 309.24,95.06 308.65,98.00 C308.06,100.93 308.14,101.00 312.02,101.00 C314.21,101.00 316.00,100.55 316.00,100.00 C316.00,99.45 315.61,99.00 315.14,99.00 C314.67,99.00 313.02,94.72 311.47,89.50 L 308.67 80.00 L 305.28 80.00 C303.20,80.00 302.13,80.40 302.52,81.03 C303.13,82.02 297.74,96.30 295.90,98.59 C295.41,99.19 295.31,99.98 295.68,100.34 ZM 284.82 396.46 C288.83,398.64 292.35,398.32 294.96,395.55 C296.79,393.59 297.36,391.61 297.76,385.80 C298.03,381.78 298.66,377.99 299.15,377.37 C300.14,376.12 298.14,375.00 294.92,375.00 C292.90,375.00 292.33,376.47 293.96,377.47 C295.14,378.21 294.12,391.00 292.74,392.75 C291.58,394.22 289.10,394.35 287.05,393.05 C285.95,392.36 285.66,390.33 285.84,384.82 C285.98,380.79 286.52,377.35 287.04,377.17 C289.05,376.47 287.87,375.21 284.75,374.73 C280.96,374.16 279.67,374.66 280.70,376.32 C281.11,376.97 281.30,380.51 281.13,384.19 C280.75,392.45 281.40,394.61 284.82,396.46 ZM 361.36 384.14 C361.79,385.56 362.81,385.32 368.96,382.39 C375.39,379.31 375.96,378.80 375.00,377.00 C373.89,374.92 372.00,374.28 372.00,375.97 C372.00,376.83 366.95,380.00 365.58,380.00 C365.29,380.00 364.38,378.69 363.55,377.10 C362.21,374.50 362.21,374.13 363.61,373.60 C364.46,373.27 366.03,373.00 367.08,373.00 C369.09,373.00 369.40,372.21 368.39,369.58 C367.62,367.58 365.39,367.53 364.64,369.50 C363.46,372.56 359.00,369.94 359.00,366.19 C359.00,364.88 364.64,362.66 365.94,363.46 C367.20,364.24 367.32,362.06 366.12,360.17 C365.45,359.11 363.96,359.49 358.89,362.03 C358.62,362.17 358.35,362.30 358.10,362.43 C353.50,364.73 352.05,365.46 352.08,366.11 C352.10,366.45 352.52,366.76 353.11,367.26 C354.42,368.37 360.10,380.00 361.36,384.14 ZM 275.82 225.59 C269.31,228.96 251.33,228.01 246.56,224.05 C244.82,222.61 244.42,218.00 246.03,218.00 C246.60,218.00 250.62,219.37 254.96,221.05 L 262.86 224.09 L 270.68 221.05 C274.98,219.38 279.06,218.01 279.75,218.00 C282.87,217.99 280.07,223.40 275.82,225.59 ZM 237.35 112.85 C240.28,114.29 244.00,113.37 246.96,110.46 C249.21,108.24 249.33,107.71 248.30,104.27 C247.20,100.58 243.76,90.90 243.26,90.09 C243.12,89.86 241.77,90.24 240.26,90.93 C237.77,92.06 237.68,92.29 239.22,93.42 C241.17,94.84 245.00,103.22 245.00,106.05 C245.00,108.61 241.35,110.54 239.46,108.97 C237.94,107.71 232.90,97.30 233.27,96.18 C233.59,95.22 231.88,94.99 229.25,95.65 C227.07,96.20 226.05,98.00 227.92,98.00 C228.43,98.00 230.27,101.10 232.02,104.89 C233.80,108.75 236.14,112.25 237.35,112.85 ZM 336.12 391.10 C336.88,391.58 339.43,391.98 341.80,391.98 C345.04,392.00 346.69,391.40 348.55,389.55 C353.35,384.74 350.66,379.86 342.08,377.80 C335.87,376.31 334.79,374.87 338.59,373.14 C340.57,372.24 341.57,372.22 342.60,373.08 C343.69,373.99 344.17,373.73 344.87,371.86 C345.60,369.89 345.41,369.44 343.67,369.15 C340.33,368.60 334.13,370.89 332.93,373.13 C330.38,377.89 332.98,380.50 342.75,382.99 C345.26,383.63 347.00,384.66 347.00,385.50 C347.00,387.69 343.16,389.25 339.47,388.56 C335.92,387.89 333.71,389.57 336.12,391.10 ZM 233.23 383.00 C236.72,385.12 237.91,385.36 240.42,384.39 C243.35,383.27 242.20,381.00 238.70,381.00 C236.88,381.00 234.86,380.46 234.20,379.80 C232.39,377.99 232.77,372.90 234.99,369.25 C236.60,366.61 237.61,366.00 240.37,366.00 C242.97,366.00 243.89,366.49 244.31,368.07 C244.77,369.83 245.17,369.98 246.93,369.04 C249.66,367.58 249.54,366.57 246.37,364.07 C244.71,362.77 242.26,362.00 239.79,362.00 C234.89,362.00 230.75,365.75 228.93,371.84 C227.37,377.03 228.58,380.16 233.23,383.00 ZM 222.39 122.28 C222.93,123.96 223.12,123.97 225.48,122.42 C227.91,120.83 228.84,119.00 227.22,119.00 C225.16,119.00 222.80,112.51 222.65,106.44 C222.50,99.88 221.85,99.04 218.75,101.39 C216.60,103.02 216.51,104.00 218.50,104.00 C220.00,108.65 219.57,110.00 219.05,110.00 C217.11,110.00 213.08,107.68 213.59,106.85 C214.33,105.66 212.55,105.79 209.55,107.16 C206.61,108.50 206.20,109.99 208.75,110.02 C209.71,110.03 212.52,111.31 215.00,112.87 C219.17,115.48 220.93,117.73 222.39,122.28 ZM 265.17 386.98 C262.68,390.31 260.59,390.59 257.95,387.95 C255.48,385.48 255.70,380.63 258.48,376.39 C260.29,373.62 265.03,373.13 267.01,375.51 C268.64,377.47 267.65,383.65 265.17,386.98 ZM 400.39 126.95 C396.99,130.99 395.01,131.95 392.25,130.91 C388.67,129.56 389.22,124.58 393.40,120.40 C397.15,116.65 399.07,116.21 401.43,118.57 C403.69,120.83 403.37,123.41 400.39,126.95 ZM 356.41 104.92 C353.42,108.47 353.20,108.53 350.22,106.44 C348.83,105.47 348.00,103.85 348.00,102.09 C348.00,98.72 351.88,92.65 354.33,92.17 C359.42,91.20 360.80,99.70 356.41,104.92 ZM 265.72 104.38 C266.26,104.93 271.01,104.14 271.92,103.36 C272.15,103.16 271.82,101.99 271.18,100.75 C269.42,97.33 267.06,86.02 267.73,84.25 C268.23,82.95 267.77,82.80 264.99,83.35 C261.05,84.14 260.12,84.84 261.71,85.82 C263.11,86.69 266.40,100.53 265.66,102.45 C265.37,103.19 265.40,104.07 265.72,104.38 ZM 286.17 97.35 C282.66,100.52 281.20,99.47 280.49,93.25 C280.13,90.09 279.62,86.71 279.35,85.75 C278.62,83.11 285.54,83.28 286.96,85.93 C288.66,89.11 288.22,95.49 286.17,97.35 ZM 269.14 154.00 C268.05,154.00 266.37,154.30 265.41,154.67 C264.02,155.21 263.80,154.97 264.34,153.55 C264.72,152.56 264.52,151.13 263.89,150.37 C263.01,149.31 263.11,149.00 264.31,149.00 C265.17,149.00 266.16,148.06 266.53,146.91 L 267.19 144.83 L 268.65 146.91 C269.46,148.06 270.85,149.00 271.75,149.00 C273.16,149.00 273.13,149.19 271.54,150.35 C270.52,151.09 270.01,152.21 270.41,152.85 C270.85,153.57 270.38,154.00 269.14,154.00 ZM 283.50 154.00 C282.52,155.58 281.00,155.16 281.64,153.49 C281.96,152.66 281.67,151.31 280.99,150.49 C279.98,149.27 280.06,149.00 281.41,149.00 C282.32,149.00 283.43,148.00 283.88,146.79 L 284.70 144.57 L 285.89 146.79 C286.54,148.00 287.84,149.01 288.79,149.03 C290.37,149.06 290.37,149.14 288.84,150.03 C287.78,150.65 287.38,151.75 287.74,153.11 C288.23,154.99 288.06,155.10 286.21,154.11 C284.83,153.38 283.91,153.34 283.50,154.00 ZM 300.50 154.00 C299.52,155.58 298.00,155.16 298.64,153.49 C298.96,152.66 298.67,151.31 297.99,150.49 C296.98,149.27 297.06,149.00 298.41,149.00 C299.32,149.00 300.43,148.00 300.88,146.79 L 301.70 144.57 L 302.89 146.79 C303.54,148.00 304.84,149.01 305.79,149.03 C307.37,149.06 307.37,149.14 305.84,150.03 C304.78,150.65 304.38,151.75 304.74,153.11 C305.23,154.99 305.06,155.10 303.21,154.11 C301.83,153.38 300.91,153.34 300.50,154.00 ZM 320.24 153.84 C319.37,152.97 318.71,153.00 317.54,153.96 C316.24,155.04 316.00,154.94 316.00,153.32 C316.00,152.27 315.46,150.86 314.80,150.20 C313.87,149.27 313.97,149.00 315.25,149.00 C316.16,149.00 317.37,148.21 317.95,147.25 C318.95,145.58 319.05,145.58 320.05,147.25 C320.63,148.21 321.81,149.00 322.67,149.00 C323.95,149.00 324.01,149.28 323.01,150.49 C322.33,151.31 322.04,152.66 322.36,153.49 C323.04,155.28 321.88,155.48 320.24,153.84 ZM 339.29 153.31 C339.66,154.27 338.83,154.62 336.35,154.57 C333.58,154.51 332.99,154.16 333.36,152.75 C333.61,151.78 333.07,150.56 332.16,150.03 C330.63,149.13 330.63,149.06 332.20,149.03 C333.14,149.01 334.37,148.21 334.95,147.25 C335.95,145.58 336.05,145.58 337.05,147.25 C337.63,148.21 338.81,149.00 339.67,149.00 C340.95,149.00 341.01,149.28 340.01,150.49 C339.33,151.31 339.01,152.57 339.29,153.31 ZM 318.81 381.25 C318.56,383.91 318.03,384.55 315.88,384.80 C313.86,385.04 313.12,384.58 312.64,382.80 C311.52,378.59 311.87,378.00 315.56,378.00 C318.98,378.00 319.11,378.13 318.81,381.25 ZM 210.00 127.81 C210.00,128.85 209.18,130.43 208.17,131.34 C206.46,132.89 206.20,132.84 204.08,130.58 L 201.81 128.17 L 204.40 126.48 C207.41,124.50 210.00,125.12 210.00,127.81 ZM 202.39 123.47 C200.34,125.52 199.28,125.40 197.99,122.98 C196.61,120.41 197.48,119.00 200.45,119.00 C203.36,119.00 204.42,121.44 202.39,123.47 ZM 306.96 88.86 C307.79,91.77 307.68,92.00 305.43,92.00 C302.73,92.00 302.53,91.36 304.03,87.43 C305.22,84.30 305.72,84.54 306.96,88.86 ZM 333.50 292.00 C333.12,292.62 334.82,293.00 337.94,293.00 C340.72,293.00 343.00,292.55 343.00,292.00 C343.00,291.45 341.00,291.00 338.56,291.00 C336.12,291.00 333.84,291.45 333.50,292.00 ZM 252.00 97.11 C252.00,98.28 253.03,98.23 256.85,96.90 C258.58,96.30 260.00,95.35 260.00,94.80 C260.00,94.24 259.28,94.06 258.41,94.40 C257.53,94.73 255.73,95.28 254.41,95.61 C253.08,95.94 252.00,96.62 252.00,97.11 ZM 314.00 289.00 C314.00,289.55 315.58,290.00 317.50,290.00 C319.42,290.00 321.00,289.55 321.00,289.00 C321.00,288.45 319.42,288.00 317.50,288.00 C315.58,288.00 314.00,288.45 314.00,289.00 ZM 306.16 251.76 C307.54,253.14 309.00,252.46 309.00,250.44 C309.00,249.65 308.10,249.00 307.00,249.00 C304.75,249.00 304.44,250.04 306.16,251.76 ZM 335.50 285.00 C335.13,285.60 336.34,286.00 338.50,286.00 C340.66,286.00 341.87,285.60 341.50,285.00 C341.16,284.45 339.81,284.00 338.50,284.00 C337.19,284.00 335.84,284.45 335.50,285.00 ZM 315.00 267.00 C315.00,267.55 316.12,268.00 317.50,268.00 C318.88,268.00 320.00,267.55 320.00,267.00 C320.00,266.45 318.88,266.00 317.50,266.00 C316.12,266.00 315.00,266.45 315.00,267.00 ZM 312.00 282.00 C312.00,282.55 312.65,283.00 313.44,283.00 C314.23,283.00 315.16,282.55 315.50,282.00 C315.84,281.45 315.19,281.00 314.06,281.00 C312.93,281.00 312.00,281.45 312.00,282.00 ZM 331.50 299.00 C331.16,299.55 331.81,300.00 332.94,300.00 C334.07,300.00 335.00,299.55 335.00,299.00 C335.00,298.45 334.35,298.00 333.56,298.00 C332.77,298.00 331.84,298.45 331.50,299.00 ZM 332.00 270.00 C332.00,270.55 332.67,271.00 333.50,271.00 C334.33,271.00 335.00,270.55 335.00,270.00 C335.00,269.45 334.33,269.00 333.50,269.00 C332.67,269.00 332.00,269.45 332.00,270.00 ZM 330.80 276.80 C329.87,277.73 330.13,278.00 332.00,278.00 C333.87,278.00 334.13,277.73 333.20,276.80 C332.27,275.87 331.73,275.87 330.80,276.80 ZM 320.00 282.00 C320.00,282.55 320.70,283.00 321.56,283.00 C322.42,283.00 322.84,282.55 322.50,282.00 C322.16,281.45 321.46,281.00 320.94,281.00 C320.42,281.00 320.00,281.45 320.00,282.00 Z" fill="rgb(17,33,54)"/>
<path d="M 333.50 292.00 C333.84,291.45 336.12,291.00 338.56,291.00 C341.00,291.00 343.00,291.45 343.00,292.00 C343.00,292.55 340.72,293.00 337.94,293.00 C334.82,293.00 333.12,292.62 333.50,292.00 ZM 266.50 292.00 C266.16,292.55 264.36,293.00 262.50,293.00 C260.64,293.00 258.84,292.55 258.50,292.00 C258.12,291.39 259.68,291.00 262.50,291.00 C265.32,291.00 266.88,291.39 266.50,292.00 ZM 314.00 289.00 C314.00,288.45 315.58,288.00 317.50,288.00 C319.42,288.00 321.00,288.45 321.00,289.00 C321.00,289.55 319.42,290.00 317.50,290.00 C315.58,290.00 314.00,289.55 314.00,289.00 ZM 335.50 285.00 C335.84,284.45 337.19,284.00 338.50,284.00 C339.81,284.00 341.16,284.45 341.50,285.00 C341.87,285.60 340.66,286.00 338.50,286.00 C336.34,286.00 335.13,285.60 335.50,285.00 ZM 286.00 267.00 C287.11,267.72 286.52,267.97 283.69,267.98 C281.40,267.99 280.13,267.60 280.50,267.00 C281.28,265.74 284.04,265.74 286.00,267.00 ZM 315.00 267.00 C315.00,266.45 316.12,266.00 317.50,266.00 C318.88,266.00 320.00,266.45 320.00,267.00 C320.00,267.55 318.88,268.00 317.50,268.00 C316.12,268.00 315.00,267.55 315.00,267.00 ZM 312.00 282.00 C312.00,281.45 312.93,281.00 314.06,281.00 C315.19,281.00 315.84,281.45 315.50,282.00 C315.16,282.55 314.23,283.00 313.44,283.00 C312.65,283.00 312.00,282.55 312.00,282.00 ZM 331.50 299.00 C331.84,298.45 332.77,298.00 333.56,298.00 C334.35,298.00 335.00,298.45 335.00,299.00 C335.00,299.55 334.07,300.00 332.94,300.00 C331.81,300.00 331.16,299.55 331.50,299.00 ZM 332.00 270.00 C332.00,269.45 332.67,269.00 333.50,269.00 C334.33,269.00 335.00,269.45 335.00,270.00 C335.00,270.55 334.33,271.00 333.50,271.00 C332.67,271.00 332.00,270.55 332.00,270.00 ZM 288.50 282.00 C288.84,282.55 288.44,283.00 287.62,283.00 C286.79,283.00 285.84,282.55 285.50,282.00 C285.16,281.45 285.56,281.00 286.38,281.00 C287.21,281.00 288.16,281.45 288.50,282.00 ZM 330.80 276.80 C331.73,275.87 332.27,275.87 333.20,276.80 C334.13,277.73 333.87,278.00 332.00,278.00 C330.13,278.00 329.87,277.73 330.80,276.80 ZM 320.00 282.00 C320.00,281.45 320.42,281.00 320.94,281.00 C321.46,281.00 322.16,281.45 322.50,282.00 C322.84,282.55 322.42,283.00 321.56,283.00 C320.70,283.00 320.00,282.55 320.00,282.00 ZM 277.50 268.00 C277.16,268.55 276.46,269.00 275.94,269.00 C275.42,269.00 275.00,268.55 275.00,268.00 C275.00,267.45 275.70,267.00 276.56,267.00 C277.42,267.00 277.84,267.45 277.50,268.00 Z" fill="rgb(106,112,109)"/>
<path d="M 319.86 429.98 C293.75,432.73 267.06,429.98 242.50,422.01 C228.88,417.60 225.68,416.35 217.12,412.12 C177.56,392.58 147.26,362.41 128.65,324.00 C115.71,297.30 110.43,276.28 109.32,247.00 C108.10,214.46 113.86,186.77 128.03,157.21 C143.79,124.33 168.21,97.04 198.85,78.03 C207.13,72.90 223.83,64.25 228.00,62.93 C229.38,62.50 233.65,60.97 237.50,59.53 C260.86,50.80 293.99,47.02 320.50,50.04 C350.00,53.41 379.15,63.75 403.50,79.47 C445.40,106.52 475.60,149.75 486.37,198.08 C497.49,248.01 488.13,300.71 460.54,343.50 C429.31,391.96 377.30,423.93 319.86,429.98 ZM 289.95 340.68 C295.96,343.39 300.24,344.75 301.50,344.37 C307.41,342.56 325.63,333.13 334.42,327.32 C347.27,318.83 362.80,303.50 370.39,291.82 C373.45,287.11 375.54,284.30 376.96,281.17 C380.01,274.48 380.00,266.40 379.98,235.35 C379.98,231.79 379.98,227.94 379.98,223.75 L 380.00 173.00 L 220.00 173.00 L 220.00 274.85 L 223.41 281.40 C236.46,306.44 259.51,326.97 289.95,340.68 ZM 194.00 186.19 C194.00,184.30 202.80,170.92 208.77,163.71 C225.37,143.71 249.82,128.92 275.48,123.35 C285.32,121.22 305.71,120.50 316.28,121.91 C333.73,124.24 351.58,130.95 366.24,140.68 C380.43,150.10 398.15,169.59 405.39,183.75 L 407.05 187.00 L 440.03 187.00 C458.16,187.00 473.00,186.72 473.00,186.37 C473.00,184.59 467.30,170.26 463.00,161.24 C439.47,111.85 392.67,74.94 338.50,63.04 C333.55,61.95 322.89,60.51 314.82,59.84 C263.33,55.55 212.84,73.45 175.34,109.31 C155.45,128.33 140.75,150.35 130.93,175.85 C130.51,176.94 130.10,177.92 129.73,178.81 C128.53,181.71 127.75,183.60 128.34,184.82 C129.44,187.09 135.26,187.07 151.86,187.02 C154.61,187.01 157.64,187.00 161.00,187.00 C179.15,187.00 194.00,186.63 194.00,186.19 ZM 333.50 417.99 C390.98,406.73 438.97,369.63 463.59,317.45 C466.56,311.14 469.00,305.53 469.00,304.99 C469.00,304.36 456.63,304.01 434.75,304.04 L 400.50 304.07 L 397.53 308.79 C395.89,311.38 390.55,317.65 385.65,322.72 C367.79,341.24 346.29,352.73 320.50,357.55 C308.42,359.81 283.96,359.08 273.00,356.14 C256.48,351.71 243.81,345.91 231.00,336.92 C222.45,330.93 206.53,315.12 202.32,308.47 L 199.50 304.00 L 165.25 304.00 C146.41,304.00 131.00,304.22 131.00,304.50 C131.00,306.21 140.22,325.03 144.91,332.86 C173.27,380.32 222.08,412.03 279.00,419.97 C290.30,421.55 321.05,420.43 333.50,417.99 ZM 224.91 157.93 L 218.50 163.91 L 300.00 163.91 L 381.50 163.91 L 375.50 158.34 C359.73,143.71 340.39,134.16 318.91,130.41 C306.66,128.27 284.01,128.99 273.00,131.86 C254.31,136.74 238.37,145.39 224.91,157.93 ZM 279.50 349.41 C283.90,350.19 287.95,350.83 288.50,350.84 C289.05,350.85 285.17,348.73 279.88,346.12 C249.92,331.36 225.61,307.84 213.56,281.96 L 211.02 276.50 L 210.93 173.50 L 208.57 176.38 C204.98,180.78 197.20,196.05 194.47,204.09 C190.61,215.43 189.00,226.07 189.00,240.15 C189.00,263.86 194.48,282.01 207.83,302.50 C213.37,311.01 228.27,326.14 236.64,331.75 C249.64,340.47 265.27,346.91 279.50,349.41 ZM 319.74 346.50 C313.60,349.36 312.96,349.88 315.50,349.93 C317.15,349.96 322.10,349.12 326.50,348.06 C359.78,340.05 388.43,315.79 402.05,284.09 C408.93,268.10 410.46,259.94 410.40,239.50 C410.34,219.86 409.46,214.92 403.10,198.40 C400.13,190.71 393.28,178.12 390.38,175.04 C389.21,173.79 389.00,181.33 389.00,225.23 L 389.00 276.88 L 384.49 285.70 C378.43,297.56 368.86,310.07 358.25,320.02 C348.49,329.18 330.76,341.37 319.74,346.50 ZM 196.30 298.50 L 194.63 295.00 L 161.31 295.00 C140.87,295.00 128.00,295.37 128.00,295.95 C128.00,296.48 128.52,298.05 129.16,299.45 L 130.32 302.00 L 197.97 302.00 ZM 471.02 299.43 C471.56,298.02 472.00,296.45 472.00,295.93 C472.00,295.37 458.81,295.00 439.03,295.00 L 406.05 295.00 L 404.53 297.95 C403.69,299.57 403.00,301.15 403.00,301.45 C403.00,301.75 418.09,302.00 436.52,302.00 L 470.05 302.00 ZM 190.27 194.25 C190.55,193.29 191.10,191.71 191.49,190.75 C192.17,189.10 190.25,189.00 159.22,189.00 L 126.23 189.00 L 125.63 191.25 C125.58,191.44 125.53,191.62 125.48,191.79 C125.20,192.80 124.99,193.56 125.22,194.15 C125.98,196.01 131.31,196.01 153.62,196.00 C154.83,196.00 156.08,196.00 157.38,196.00 C187.37,196.00 189.80,195.87 190.27,194.25 ZM 474.61 192.82 C474.27,191.08 473.83,189.49 473.64,189.31 C473.46,189.12 458.69,189.09 440.83,189.24 L 408.35 189.50 L 411.01 196.00 L 475.25 196.00 ZM 478.61 209.42 C478.27,208.55 478.00,206.97 478.00,205.92 C478.00,204.07 476.88,204.00 445.98,204.00 L 413.96 204.00 L 414.62 206.75 C414.98,208.26 415.47,209.84 415.70,210.25 C415.93,210.66 430.31,211.00 447.67,211.00 C476.02,211.00 479.15,210.84 478.61,209.42 ZM 185.02 208.43 C185.56,207.02 186.00,205.45 186.00,204.93 C186.00,204.37 173.41,204.00 154.61,204.00 C153.46,204.00 152.35,204.00 151.28,204.00 C128.56,204.00 123.45,203.99 122.31,206.12 C121.98,206.74 121.99,207.53 122.00,208.56 C122.00,208.73 122.00,208.90 122.00,209.08 C122.00,210.93 123.11,211.00 153.02,211.00 L 184.05 211.00 ZM 190.00 286.57 C190.00,286.33 189.56,284.98 189.02,283.57 L 188.05 281.00 L 156.02 281.00 C138.41,281.00 124.01,281.34 124.01,281.75 C124.02,282.16 124.30,283.51 124.63,284.75 L 125.23 287.00 L 157.62 287.00 C175.43,287.00 190.00,286.80 190.00,286.57 ZM 475.39 285.42 C475.43,285.32 475.47,285.22 475.50,285.13 C475.89,284.13 476.18,283.38 475.97,282.80 C475.32,281.00 469.69,281.00 446.31,281.00 L 444.16 281.00 L 412.32 281.00 L 411.16 283.55 C410.52,284.95 410.00,286.30 410.00,286.55 C410.00,286.80 424.58,287.00 442.39,287.00 C471.01,287.00 474.86,286.82 475.39,285.42 Z" fill="rgb(191,163,81)"/>
<path d="M 0.00 240.00 L 0.00 0.00 L 300.00 0.00 L 600.00 0.00 L 600.00 240.00 L 600.00 480.00 L 300.00 480.00 L 0.00 480.00 L 0.00 240.00 ZM 319.86 429.98 C377.30,423.93 429.31,391.96 460.54,343.50 C488.13,300.71 497.49,248.01 486.37,198.08 C475.60,149.75 445.40,106.52 403.50,79.47 C379.15,63.75 350.00,53.41 320.50,50.04 C293.99,47.02 260.86,50.80 237.50,59.53 C233.65,60.97 229.38,62.50 228.00,62.93 C223.83,64.25 207.13,72.90 198.85,78.03 C168.21,97.04 143.79,124.33 128.03,157.21 C113.86,186.77 108.10,214.46 109.32,247.00 C110.43,276.28 115.71,297.30 128.65,324.00 C147.26,362.41 177.56,392.58 217.12,412.12 C225.68,416.35 228.88,417.60 242.50,422.01 C267.06,429.98 293.75,432.73 319.86,429.98 ZM 284.82 396.46 C281.40,394.61 280.75,392.45 281.13,384.19 C281.30,380.51 281.11,376.97 280.70,376.32 C279.67,374.66 280.96,374.16 284.75,374.73 C287.87,375.21 289.05,376.47 287.04,377.17 C286.52,377.35 285.98,380.79 285.84,384.82 C285.66,390.33 285.95,392.36 287.05,393.05 C289.10,394.35 291.58,394.22 292.74,392.75 C294.12,391.00 295.14,378.21 293.96,377.47 C292.33,376.47 292.90,375.00 294.92,375.00 C298.14,375.00 300.14,376.12 299.15,377.37 C298.66,377.99 298.03,381.78 297.76,385.80 C297.36,391.61 296.79,393.59 294.96,395.55 C292.35,398.32 288.83,398.64 284.82,396.46 ZM 308.28 388.98 C308.16,384.03 307.58,379.08 306.99,377.97 C305.55,375.28 306.96,374.83 315.58,375.20 C322.12,375.49 322.51,375.64 323.45,378.33 C324.22,380.54 324.06,381.84 322.68,384.23 C320.97,387.22 320.98,387.35 323.21,389.87 C324.47,391.28 326.17,392.98 327.00,393.64 C328.94,395.19 328.29,395.74 324.03,396.16 C321.21,396.44 320.49,396.13 320.18,394.50 C319.64,391.69 317.03,389.00 314.85,389.00 C312.73,389.00 312.59,389.79 314.04,393.60 C315.19,396.63 314.11,397.96 310.50,397.98 C308.66,397.99 308.48,397.25 308.28,388.98 ZM 318.81 381.25 C319.11,378.13 318.98,378.00 315.56,378.00 C311.87,378.00 311.52,378.59 312.64,382.80 C313.12,384.58 313.86,385.04 315.88,384.80 C318.03,384.55 318.56,383.91 318.81,381.25 ZM 255.08 390.41 C252.49,388.23 252.00,387.11 252.00,383.36 C252.00,372.87 259.66,367.19 268.00,371.50 C272.06,373.60 273.32,378.56 271.43,384.94 C269.00,393.09 261.32,395.67 255.08,390.41 ZM 265.17 386.98 C267.65,383.65 268.64,377.47 267.01,375.51 C265.03,373.13 260.29,373.62 258.48,376.39 C255.70,380.63 255.48,385.48 257.95,387.95 C260.59,390.59 262.68,390.31 265.17,386.98 ZM 336.12 391.10 C333.71,389.57 335.92,387.89 339.47,388.56 C343.16,389.25 347.00,387.69 347.00,385.50 C347.00,384.66 345.26,383.63 342.75,382.99 C332.98,380.50 330.38,377.89 332.93,373.13 C334.13,370.89 340.33,368.60 343.67,369.15 C345.41,369.44 345.60,369.89 344.87,371.86 C344.17,373.73 343.69,373.99 342.60,373.08 C341.57,372.22 340.57,372.24 338.59,373.14 C334.79,374.87 335.87,376.31 342.08,377.80 C350.66,379.86 353.35,384.74 348.55,389.55 C346.69,391.40 345.04,392.00 341.80,391.98 C339.43,391.98 336.88,391.58 336.12,391.10 ZM 361.36 384.14 C360.10,380.00 354.42,368.37 353.11,367.26 C351.32,365.74 351.10,365.94 358.89,362.03 C363.96,359.49 365.45,359.11 366.12,360.17 C367.32,362.06 367.20,364.24 365.94,363.46 C364.64,362.66 359.00,364.88 359.00,366.19 C359.00,369.94 363.46,372.56 364.64,369.50 C365.39,367.53 367.62,367.58 368.39,369.58 C369.40,372.21 369.09,373.00 367.08,373.00 C366.03,373.00 364.46,373.27 363.61,373.60 C362.21,374.13 362.21,374.50 363.55,377.10 C364.38,378.69 365.29,380.00 365.58,380.00 C366.95,380.00 372.00,376.83 372.00,375.97 C372.00,374.28 373.89,374.92 375.00,377.00 C375.96,378.80 375.39,379.31 368.96,382.39 C362.81,385.32 361.79,385.56 361.36,384.14 ZM 233.23 383.00 C228.58,380.16 227.37,377.03 228.93,371.84 C230.75,365.75 234.89,362.00 239.79,362.00 C242.26,362.00 244.71,362.77 246.37,364.07 C249.54,366.57 249.66,367.58 246.93,369.04 C245.17,369.98 244.77,369.83 244.31,368.07 C243.89,366.49 242.97,366.00 240.37,366.00 C237.61,366.00 236.60,366.61 234.99,369.25 C232.77,372.90 232.39,377.99 234.20,379.80 C234.86,380.46 236.88,381.00 238.70,381.00 C242.20,381.00 243.35,383.27 240.42,384.39 C237.91,385.36 236.72,385.12 233.23,383.00 ZM 279.50 349.41 C265.27,346.91 249.64,340.47 236.64,331.75 C228.27,326.14 213.37,311.01 207.83,302.50 C194.48,282.01 189.00,263.86 189.00,240.15 C189.00,226.07 190.61,215.43 194.47,204.09 C197.20,196.05 204.98,180.78 208.57,176.38 L 210.93 173.50 L 210.97 225.00 L 211.02 276.50 L 213.56 281.96 C225.61,307.84 249.92,331.36 279.88,346.12 C285.17,348.73 289.05,350.85 288.50,350.84 C287.95,350.83 283.90,350.19 279.50,349.41 ZM 319.74 346.50 C330.76,341.37 348.49,329.18 358.25,320.02 C368.86,310.07 378.43,297.56 384.49,285.70 L 389.00 276.88 L 389.00 225.23 C389.00,181.33 389.21,173.79 390.38,175.04 C393.28,178.12 400.13,190.71 403.10,198.40 C409.46,214.92 410.34,219.86 410.40,239.50 C410.46,259.94 408.93,268.10 402.05,284.09 C388.43,315.79 359.78,340.05 326.50,348.06 C322.10,349.12 317.15,349.96 315.50,349.93 C312.96,349.88 313.60,349.36 319.74,346.50 ZM 289.95 340.68 C259.51,326.97 236.46,306.44 223.41,281.40 L 220.00 274.85 L 220.00 223.93 L 220.00 173.00 L 300.00 173.00 L 380.00 173.00 L 379.98 223.75 C379.95,281.60 380.76,275.87 370.39,291.82 C362.80,303.50 347.27,318.83 334.42,327.32 C325.63,333.13 307.41,342.56 301.50,344.37 C300.24,344.75 295.96,343.39 289.95,340.68 ZM 315.04 315.00 C329.33,315.00 330.00,314.91 330.00,313.00 C330.00,311.09 329.33,311.00 315.00,311.00 C300.67,311.00 300.00,311.09 300.00,313.00 C300.00,314.91 299.33,315.00 285.00,315.00 C270.67,315.00 270.00,314.91 270.00,313.00 C270.00,311.09 270.67,311.00 284.30,311.00 C292.28,311.00 299.03,310.57 299.58,310.02 C301.27,308.33 312.16,305.00 315.91,305.03 C317.88,305.04 323.33,305.93 328.00,307.00 C336.53,308.96 344.47,309.53 347.42,308.39 C348.79,307.87 349.00,304.97 349.00,286.33 L 349.00 264.88 L 344.75 265.51 C341.99,265.92 336.83,265.38 330.04,263.97 C318.38,261.54 309.86,261.67 303.75,264.37 L 300.00 266.03 L 300.00 287.51 C300.00,299.33 299.75,309.00 299.45,309.00 C299.15,309.00 297.61,308.33 296.04,307.52 C290.73,304.78 283.32,304.70 271.10,307.26 L 259.71 309.65 L 267.56 315.38 C271.88,318.54 280.83,323.83 287.46,327.15 L 299.50 333.18 L 299.79 324.09 L 300.08 315.00 L 315.04 315.00 ZM 253.27 264.60 C256.87,265.76 264.83,265.20 274.90,263.08 C284.46,261.07 289.32,261.26 296.32,263.93 C297.86,264.52 299.33,265.00 299.57,265.00 C299.80,265.00 300.00,261.40 300.00,257.00 L 300.00 249.00 L 296.00 249.00 C293.80,249.00 292.00,248.55 292.00,248.00 C292.00,247.45 292.44,247.00 292.97,247.00 C294.19,247.00 297.00,241.69 297.00,239.38 C297.00,236.56 293.93,234.00 290.55,234.00 C287.61,234.00 287.39,233.75 287.22,230.25 C287.13,228.19 286.77,223.51 286.44,219.86 C285.89,213.84 286.04,213.09 287.99,211.72 C289.18,210.89 289.78,209.99 289.32,209.72 C286.83,208.23 264.55,200.00 263.01,200.00 C261.04,200.00 237.98,208.67 236.74,209.88 C236.32,210.28 241.99,212.98 249.33,215.86 L 262.67 221.10 L 273.09 217.06 C278.81,214.83 283.84,213.01 284.25,213.01 C285.46,213.00 285.11,223.66 283.82,226.51 C282.84,228.65 282.93,229.62 284.37,232.05 C285.33,233.67 285.68,235.00 285.15,235.00 C284.61,235.00 284.33,235.79 284.51,236.75 C284.70,237.71 284.88,238.79 284.92,239.15 C284.97,239.52 286.80,239.57 289.00,239.27 C291.20,238.98 293.00,239.15 293.00,239.66 C293.00,240.17 291.07,242.48 288.71,244.79 L 284.42 249.00 L 257.71 249.00 L 231.00 249.00 L 231.00 260.77 L 231.00 272.55 L 235.41 280.28 C237.83,284.54 242.22,290.98 245.16,294.60 L 250.50 301.19 L 250.77 282.53 L 251.04 263.88 L 253.27 264.60 ZM 266.50 292.00 C266.88,291.39 265.32,291.00 262.50,291.00 C259.68,291.00 258.12,291.39 258.50,292.00 C258.84,292.55 260.64,293.00 262.50,293.00 C264.36,293.00 266.16,292.55 266.50,292.00 ZM 288.50 282.00 C288.16,281.45 287.21,281.00 286.38,281.00 C285.56,281.00 285.16,281.45 285.50,282.00 C285.84,282.55 286.79,283.00 287.62,283.00 C288.44,283.00 288.84,282.55 288.50,282.00 ZM 277.50 268.00 C277.84,267.45 277.42,267.00 276.56,267.00 C275.70,267.00 275.00,267.45 275.00,268.00 C275.00,268.55 275.42,269.00 275.94,269.00 C276.46,269.00 277.16,268.55 277.50,268.00 ZM 286.00 267.00 C284.04,265.74 281.28,265.74 280.50,267.00 C280.13,267.60 281.40,267.99 283.69,267.98 C286.52,267.97 287.11,267.72 286.00,267.00 ZM 313.55 253.55 C314.90,252.20 316.00,250.62 316.00,250.05 C316.00,249.44 318.44,249.00 321.83,249.00 C325.04,249.00 327.92,248.74 328.24,248.43 C329.27,247.39 325.36,235.51 323.88,235.22 C323.09,235.06 321.89,234.05 321.21,232.97 C320.01,231.04 320.32,231.00 336.50,231.00 C352.77,231.00 353.00,231.03 351.77,233.00 C351.08,234.10 349.82,235.00 348.97,235.00 C347.92,235.00 346.89,236.98 345.77,241.18 C344.86,244.59 344.34,247.74 344.61,248.18 C344.89,248.63 350.49,249.00 357.06,249.00 L 369.00 249.00 L 369.00 217.00 L 369.00 185.00 L 334.50 185.00 L 300.00 185.00 L 300.00 216.39 C300.00,250.09 300.25,251.90 305.21,254.66 C308.64,256.56 310.82,256.27 313.55,253.55 ZM 275.82 225.59 C280.07,223.40 282.87,217.99 279.75,218.00 C279.06,218.01 274.98,219.38 270.68,221.05 L 262.86 224.09 L 254.96 221.05 C250.62,219.37 246.60,218.00 246.03,218.00 C244.42,218.00 244.82,222.61 246.56,224.05 C251.33,228.01 269.31,228.96 275.82,225.59 ZM 224.91 157.93 C238.37,145.39 254.31,136.74 273.00,131.86 C284.01,128.99 306.66,128.27 318.91,130.41 C340.39,134.16 359.73,143.71 375.50,158.34 L 381.50 163.91 L 300.00 163.91 L 218.50 163.91 L 224.91 157.93 ZM 269.14 154.00 C270.38,154.00 270.85,153.57 270.41,152.85 C270.01,152.21 270.52,151.09 271.54,150.35 C273.13,149.19 273.16,149.00 271.75,149.00 C270.85,149.00 269.46,148.06 268.65,146.91 L 267.19 144.83 L 266.53 146.91 C266.16,148.06 265.17,149.00 264.31,149.00 C263.11,149.00 263.01,149.31 263.89,150.37 C264.52,151.13 264.72,152.56 264.34,153.55 C263.80,154.97 264.02,155.21 265.41,154.67 C266.37,154.30 268.05,154.00 269.14,154.00 ZM 283.50 154.00 C283.91,153.34 284.83,153.38 286.21,154.11 C288.06,155.10 288.23,154.99 287.74,153.11 C287.38,151.75 287.78,150.65 288.84,150.03 C290.37,149.14 290.37,149.06 288.79,149.03 C287.84,149.01 286.54,148.00 285.89,146.79 L 284.70 144.57 L 283.88 146.79 C283.43,148.00 282.32,149.00 281.41,149.00 C280.06,149.00 279.98,149.27 280.99,150.49 C281.67,151.31 281.96,152.66 281.64,153.49 C281.00,155.16 282.52,155.58 283.50,154.00 ZM 300.50 154.00 C300.91,153.34 301.83,153.38 303.21,154.11 C305.06,155.10 305.23,154.99 304.74,153.11 C304.38,151.75 304.78,150.65 305.84,150.03 C307.37,149.14 307.37,149.06 305.79,149.03 C304.84,149.01 303.54,148.00 302.89,146.79 L 301.70 144.57 L 300.88 146.79 C300.43,148.00 299.32,149.00 298.41,149.00 C297.06,149.00 296.98,149.27 297.99,150.49 C298.67,151.31 298.96,152.66 298.64,153.49 C298.00,155.16 299.52,155.58 300.50,154.00 ZM 320.24 153.84 C321.88,155.48 323.04,155.28 322.36,153.49 C322.04,152.66 322.33,151.31 323.01,150.49 C324.01,149.28 323.95,149.00 322.67,149.00 C321.81,149.00 320.63,148.21 320.05,147.25 C319.05,145.58 318.95,145.58 317.95,147.25 C317.37,148.21 316.16,149.00 315.25,149.00 C313.97,149.00 313.87,149.27 314.80,150.20 C315.46,150.86 316.00,152.27 316.00,153.32 C316.00,154.94 316.24,155.04 317.54,153.96 C318.71,153.00 319.37,152.97 320.24,153.84 ZM 339.29 153.31 C339.01,152.57 339.33,151.31 340.01,150.49 C341.01,149.28 340.95,149.00 339.67,149.00 C338.81,149.00 337.63,148.21 337.05,147.25 C336.05,145.58 335.95,145.58 334.95,147.25 C334.37,148.21 333.14,149.01 332.20,149.03 C330.63,149.06 330.63,149.13 332.16,150.03 C333.07,150.56 333.61,151.78 333.36,152.75 C332.99,154.16 333.58,154.51 336.35,154.57 C338.83,154.62 339.66,154.27 339.29,153.31 ZM 203.00 136.90 C203.00,135.29 193.70,124.12 192.31,124.06 C189.43,123.92 190.30,121.86 194.62,118.56 C201.30,113.47 207.00,113.99 207.00,119.70 C207.00,121.47 207.56,122.00 209.44,122.00 C212.32,122.00 214.99,125.33 214.28,128.04 C213.73,130.15 205.64,138.00 204.02,138.00 C203.46,138.00 203.00,137.51 203.00,136.90 ZM 210.00 127.81 C210.00,125.12 207.41,124.50 204.40,126.48 L 201.81 128.17 L 204.08 130.58 C206.20,132.84 206.46,132.89 208.17,131.34 C209.18,130.43 210.00,128.85 210.00,127.81 ZM 202.39 123.47 C204.42,121.44 203.36,119.00 200.45,119.00 C197.48,119.00 196.61,120.41 197.99,122.98 C199.28,125.40 200.34,125.52 202.39,123.47 ZM 391.36 134.01 C388.24,132.75 386.00,129.05 386.00,125.16 C386.00,122.55 386.90,120.87 389.88,117.88 C394.92,112.84 399.68,112.52 404.08,116.92 C407.40,120.25 407.70,122.72 405.37,127.63 C402.37,133.96 397.14,136.34 391.36,134.01 ZM 400.39 126.95 C403.37,123.41 403.69,120.83 401.43,118.57 C399.07,116.21 397.15,116.65 393.40,120.40 C389.22,124.58 388.67,129.56 392.25,130.91 C395.01,131.95 396.99,130.99 400.39,126.95 ZM 222.39 122.28 C220.93,117.73 219.17,115.48 215.00,112.87 C212.52,111.31 209.71,110.03 208.75,110.02 C206.20,109.99 206.61,108.50 209.55,107.16 C212.55,105.79 214.33,105.66 213.59,106.85 C213.08,107.68 217.11,110.00 219.05,110.00 C219.57,110.00 220.00,108.65 220.00,107.00 C220.00,105.00 219.50,104.00 218.50,104.00 C216.51,104.00 216.60,103.02 218.75,101.39 C221.85,99.04 222.50,99.88 222.65,106.44 C222.80,112.51 225.16,119.00 227.22,119.00 C228.84,119.00 227.91,120.83 225.48,122.42 C223.12,123.97 222.93,123.96 222.39,122.28 ZM 376.50 122.82 C373.63,121.22 373.44,120.97 374.55,120.20 C375.10,119.81 376.38,118.19 377.40,116.60 C379.23,113.72 379.23,113.68 376.87,111.87 C375.57,110.87 373.81,110.03 372.97,110.02 C371.17,110.00 368.06,114.93 368.72,116.75 C369.36,118.53 367.96,118.29 364.55,116.04 C362.09,114.42 361.87,113.99 363.26,113.45 C365.01,112.78 372.33,100.53 372.33,98.29 C372.33,96.57 374.17,96.66 376.56,98.48 C377.78,99.42 378.12,100.25 377.48,100.73 C376.91,101.15 375.73,102.64 374.84,104.04 C373.26,106.54 373.29,106.61 377.02,108.65 L 380.80 110.73 L 382.07 108.11 C382.77,106.68 383.25,104.94 383.13,104.25 C382.81,102.38 385.46,102.74 388.14,104.93 C390.24,106.64 390.31,106.92 388.78,107.52 C386.88,108.26 380.00,119.92 380.00,122.41 C380.00,124.27 379.25,124.36 376.50,122.82 ZM 237.35 112.85 C236.14,112.25 233.80,108.75 232.02,104.89 C230.27,101.10 228.43,98.00 227.92,98.00 C226.05,98.00 227.07,96.20 229.25,95.65 C231.88,94.99 233.59,95.22 233.27,96.18 C232.90,97.30 237.94,107.71 239.46,108.97 C241.35,110.54 245.00,108.61 245.00,106.05 C245.00,103.22 241.17,94.84 239.22,93.42 C237.68,92.29 237.77,92.06 240.26,90.93 C241.77,90.24 243.12,89.86 243.26,90.09 C243.76,90.90 247.20,100.58 248.30,104.27 C249.33,107.71 249.21,108.24 246.96,110.46 C244.00,113.37 240.28,114.29 237.35,112.85 ZM 348.78 109.44 C345.43,107.63 344.00,105.10 344.00,101.02 C344.00,90.87 354.46,85.30 361.08,91.92 C362.68,93.53 364.00,95.67 363.99,96.67 C363.98,100.88 361.74,106.04 358.89,108.44 C355.46,111.33 352.75,111.60 348.78,109.44 ZM 356.41 104.92 C360.80,99.70 359.42,91.20 354.33,92.17 C351.88,92.65 348.00,98.72 348.00,102.09 C348.00,103.85 348.83,105.47 350.22,106.44 C353.20,108.53 353.42,108.47 356.41,104.92 ZM 265.72 104.38 C265.40,104.07 265.37,103.19 265.66,102.45 C266.40,100.53 263.11,86.69 261.71,85.82 C260.12,84.84 261.05,84.14 264.99,83.35 C267.77,82.80 268.23,82.95 267.73,84.25 C267.06,86.02 269.42,97.33 271.18,100.75 C271.82,101.99 272.15,103.16 271.92,103.36 C271.01,104.14 266.26,104.93 265.72,104.38 ZM 332.00 103.98 C330.97,103.31 330.84,102.76 331.59,102.25 C332.19,101.84 332.96,100.08 333.30,98.34 C333.98,94.83 332.95,94.00 327.92,94.00 C324.94,94.00 324.35,95.45 324.95,101.29 C325.11,102.76 324.64,102.95 322.32,102.40 C318.49,101.48 317.59,100.87 318.87,100.08 C320.22,99.24 323.37,84.41 322.62,82.44 C322.24,81.45 322.76,81.00 324.28,81.02 C327.31,81.04 329.87,82.76 328.35,83.75 C327.72,84.16 327.05,85.83 326.85,87.45 C326.53,90.17 326.81,90.47 330.40,91.22 C332.55,91.66 334.48,91.85 334.70,91.63 C334.92,91.42 335.17,89.41 335.26,87.19 C335.42,83.24 335.50,83.15 338.46,83.71 C342.42,84.46 342.40,84.44 340.70,87.16 C338.88,90.10 336.74,101.17 337.58,103.36 C338.06,104.60 337.63,105.00 335.86,104.98 C334.56,104.98 332.83,104.53 332.00,103.98 ZM 276.27 99.72 C276.39,93.74 274.85,83.00 273.86,83.00 C273.32,83.00 273.16,82.55 273.50,82.00 C274.54,80.32 287.62,80.77 289.40,82.55 C292.00,85.14 293.28,91.63 291.97,95.58 C290.66,99.57 287.56,101.45 280.85,102.33 L 276.20 102.93 L 276.27 99.72 ZM 286.17 97.35 C288.22,95.49 288.66,89.11 286.96,85.93 C285.54,83.28 278.62,83.11 279.35,85.75 C279.62,86.71 280.13,90.09 280.49,93.25 C281.20,99.47 282.66,100.52 286.17,97.35 ZM 295.68 100.34 C295.31,99.98 295.41,99.19 295.90,98.59 C297.74,96.30 303.13,82.02 302.52,81.03 C302.13,80.40 303.20,80.00 305.28,80.00 L 308.67 80.00 L 311.47 89.50 C313.02,94.72 314.67,99.00 315.14,99.00 C315.61,99.00 316.00,99.45 316.00,100.00 C316.00,100.55 314.21,101.00 312.02,101.00 C308.14,101.00 308.06,100.93 308.65,98.00 C309.24,95.06 309.16,95.00 305.23,95.00 C301.33,95.00 298.80,97.14 301.06,98.54 C301.59,98.87 301.77,99.56 301.46,100.07 C300.80,101.13 296.66,101.33 295.68,100.34 ZM 306.96 88.86 C305.72,84.54 305.22,84.30 304.03,87.43 C302.53,91.36 302.73,92.00 305.43,92.00 C307.68,92.00 307.79,91.77 306.96,88.86 ZM 252.00 97.11 C252.00,96.62 253.08,95.94 254.41,95.61 C255.73,95.28 257.53,94.73 258.41,94.40 C259.28,94.06 260.00,94.24 260.00,94.80 C260.00,95.35 258.58,96.30 256.85,96.90 C253.03,98.23 252.00,98.28 252.00,97.11 ZM 306.16 251.76 C304.44,250.04 304.75,249.00 307.00,249.00 C308.10,249.00 309.00,249.65 309.00,250.44 C309.00,252.46 307.54,253.14 306.16,251.76 ZM 340.00 228.08 C340.00,227.55 340.45,226.84 341.00,226.50 C342.58,225.53 342.17,218.42 340.31,214.53 C339.39,212.59 338.38,211.00 338.06,211.01 C337.55,211.01 335.62,213.91 332.20,219.83 C331.20,221.55 331.12,222.90 331.88,225.08 C332.71,227.48 332.62,228.00 331.37,228.00 C329.11,228.00 324.00,222.48 324.00,220.04 C324.00,218.88 323.29,216.84 322.41,215.51 C320.25,212.21 321.31,208.02 325.58,202.90 C327.46,200.65 329.00,198.40 329.00,197.91 C329.00,197.41 329.45,197.00 330.00,197.00 C331.33,197.00 331.26,200.38 329.84,205.14 C328.33,210.17 329.53,211.24 332.64,207.63 C334.82,205.10 335.04,204.15 334.48,199.63 C333.88,194.81 334.03,194.32 336.97,191.52 L 340.10 188.53 L 339.45 192.61 C339.00,195.41 339.27,197.62 340.31,199.63 C341.15,201.25 342.15,204.35 342.54,206.53 C343.29,210.66 344.60,213.00 346.15,213.00 C348.30,213.00 348.03,209.72 345.61,206.56 C342.73,202.78 342.39,201.01 344.20,199.20 C345.99,197.41 347.00,197.74 347.00,200.13 C347.00,201.30 347.95,203.81 349.12,205.69 C351.88,210.16 351.40,218.22 348.10,222.86 C345.80,226.09 340.00,229.83 340.00,228.08 Z" fill="rgb(253,253,237)"/>
</g>
</svg>